HIERARCHY
ROOT Root
{
  OFFSET 0.0 0.0 0.0
  CHANNELS 6 Xposition Yposition Zposition Zrotation Yrotation Xrotation
  JOINT Hips
  {
    OFFSET 0.0 100.0 0.0
    CHANNELS 6 Xposition Yposition Zposition Zrotation Yrotation Xrotation
    JOINT Spine1
    {
      OFFSET 5.003913 -0.037094 -0.013727
      CHANNELS 3 Zrotation Yrotation Xrotation
      JOINT Spine2
      {
        OFFSET 7.125363 -1e-06 0.0
        CHANNELS 3 Zrotation Yrotation Xrotation
        JOINT Chest
        {
          OFFSET 7.594027 1e-06 0.0
          CHANNELS 3 Zrotation Yrotation Xrotation
          JOINT Neck1
          {
            OFFSET 26.313086 -0.460272 -0.181672
            CHANNELS 3 Zrotation Yrotation Xrotation
            JOINT Neck2
            {
              OFFSET 8.045911 0.0 0.0
              CHANNELS 3 Zrotation Yrotation Xrotation
              JOINT Head
              {
                OFFSET 6.432774 0.0 0.0
                CHANNELS 3 Zrotation Yrotation Xrotation
                JOINT HeadEnd
                {
                  OFFSET 16.169773 0.06451 0.00362
                  CHANNELS 3 Zrotation Yrotation Xrotation
                }
                JOINT Jaw
                {
                  OFFSET 0.108741 3.12938 0.002639
                  CHANNELS 3 Zrotation Yrotation Xrotation
                }
                JOINT LeftEye
                {
                  OFFSET 4.45173 8.166359 3.206392
                  CHANNELS 3 Zrotation Yrotation Xrotation
                }
                JOINT RightEye
                {
                  OFFSET 4.436895 8.135758 -3.222429
                  CHANNELS 3 Zrotation Yrotation Xrotation
                }
              }
            }
          }
          JOINT LeftShoulder
          {
            OFFSET 23.218927 5.195579 1.621656
            CHANNELS 3 Zrotation Yrotation Xrotation
            JOINT LeftArm
            {
              OFFSET 15.902118 2e-06 -2e-06
              CHANNELS 3 Zrotation Yrotation Xrotation
              JOINT LeftForeArm
              {
                OFFSET 28.739307 0.0 -1e-06
                CHANNELS 3 Zrotation Yrotation Xrotation
                JOINT LeftHand
                {
                  OFFSET 27.093981 -4e-06 0.0
                  CHANNELS 3 Zrotation Yrotation Xrotation
                  JOINT LeftHandThumb1
                  {
                    OFFSET 2.276781 3.380274 0.83384
                    CHANNELS 3 Zrotation Yrotation Xrotation
                    JOINT LeftHandThumb2
                    {
                      OFFSET 4.705309 -1e-06 -1e-06
                      CHANNELS 3 Zrotation Yrotation Xrotation
                      JOINT LeftHandThumb3
                      {
                        OFFSET 2.798515 0.0 3e-06
                        CHANNELS 3 Zrotation Yrotation Xrotation
                        JOINT LeftHandThumbEnd
                        {
                          OFFSET 3.180793 4e-06 -4e-06
                          CHANNELS 3 Zrotation Yrotation Xrotation
                        }
                      }
                    }
                  }
                  JOINT LeftHandIndex1
                  {
                    OFFSET 3.247786 2.352677 0.137192
                    CHANNELS 3 Zrotation Yrotation Xrotation
                    JOINT LeftHandIndex2
                    {
                      OFFSET 6.367095 1e-06 0.0
                      CHANNELS 3 Zrotation Yrotation Xrotation
                      JOINT LeftHandIndex3
                      {
                        OFFSET 3.662364 0.0 0.0
                        CHANNELS 3 Zrotation Yrotation Xrotation
                        JOINT LeftHandIndex4
                        {
                          OFFSET 2.329242 4e-06 -4e-06
                          CHANNELS 3 Zrotation Yrotation Xrotation
                          JOINT LeftHandIndexEnd
                          {
                            OFFSET 2.767823 1e-06 0.0
                            CHANNELS 3 Zrotation Yrotation Xrotation
                          }
                        }
                      }
                    }
                  }
                  JOINT LeftHandMiddle1
                  {
                    OFFSET 3.163612 0.945023 -0.406112
                    CHANNELS 3 Zrotation Yrotation Xrotation
                    JOINT LeftHandMiddle2
                    {
                      OFFSET 6.276789 3e-06 0.0
                      CHANNELS 3 Zrotation Yrotation Xrotation
                      JOINT LeftHandMiddle3
                      {
                        OFFSET 4.35652 -1e-06 4e-06
                        CHANNELS 3 Zrotation Yrotation Xrotation
                        JOINT LeftHandMiddle4
                        {
                          OFFSET 2.996877 0.0 8e-06
                          CHANNELS 3 Zrotation Yrotation Xrotation
                          JOINT LeftHandMiddleEnd
                          {
                            OFFSET 2.323256 3e-06 -4e-06
                            CHANNELS 3 Zrotation Yrotation Xrotation
                          }
                        }
                      }
                    }
                  }
                  JOINT LeftHandRing1
                  {
                    OFFSET 2.882606 -0.309162 0.107445
                    CHANNELS 3 Zrotation Yrotation Xrotation
                    JOINT LeftHandRing2
                    {
                      OFFSET 6.033198 0.0 4e-06
                      CHANNELS 3 Zrotation Yrotation Xrotation
                      JOINT LeftHandRing3
                      {
                        OFFSET 4.350578 3e-06 0.0
                        CHANNELS 3 Zrotation Yrotation Xrotation
                        JOINT LeftHandRing4
                        {
                          OFFSET 2.651321 2e-06 -7e-06
                          CHANNELS 3 Zrotation Yrotation Xrotation
                          JOINT LeftHandRingEnd
                          {
                            OFFSET 1.937663 1e-06 -4e-06
                            CHANNELS 3 Zrotation Yrotation Xrotation
                          }
                        }
                      }
                    }
                  }
                  JOINT LeftHandPinky1
                  {
                    OFFSET 2.865315 -1.525436 0.575687
                    CHANNELS 3 Zrotation Yrotation Xrotation
                    JOINT LeftHandPinky2
                    {
                      OFFSET 5.54936 1e-06 -8e-06
                      CHANNELS 3 Zrotation Yrotation Xrotation
                      JOINT LeftHandPinky3
                      {
                        OFFSET 3.070974 0.0 -4e-06
                        CHANNELS 3 Zrotation Yrotation Xrotation
                        JOINT LeftHandPinky4
                        {
                          OFFSET 1.549672 1e-06 0.0
                          CHANNELS 3 Zrotation Yrotation Xrotation
                          JOINT LeftHandPinkyEnd
                          {
                            OFFSET 1.952123 0.0 0.0
                            CHANNELS 3 Zrotation Yrotation Xrotation
                          }
                        }
                      }
                    }
                  }
                }
              }
            }
          }
          JOINT RightShoulder
          {
            OFFSET 23.161716 5.296122 -1.380114
            CHANNELS 3 Zrotation Yrotation Xrotation
            JOINT RightArm
            {
              OFFSET -16.027195 -2e-06 1.1e-05
              CHANNELS 3 Zrotation Yrotation Xrotation
              JOINT RightForeArm
              {
                OFFSET -28.736639 4e-06 2e-06
                CHANNELS 3 Zrotation Yrotation Xrotation
                JOINT RightHand
                {
                  OFFSET -27.133619 6e-06 0.0
                  CHANNELS 3 Zrotation Yrotation Xrotation
                  JOINT RightHandThumb1
                  {
                    OFFSET -2.274328 -3.351035 -0.83067
                    CHANNELS 3 Zrotation Yrotation Xrotation
                    JOINT RightHandThumb2
                    {
                      OFFSET -4.703594 -3e-06 2e-06
                      CHANNELS 3 Zrotation Yrotation Xrotation
                      JOINT RightHandThumb3
                      {
                        OFFSET -2.794935 -4e-06 -3e-06
                        CHANNELS 3 Zrotation Yrotation Xrotation
                        JOINT RightHandThumbEnd
                        {
                          OFFSET -3.183852 4e-06 1e-06
                          CHANNELS 3 Zrotation Yrotation Xrotation
                        }
                      }
                    }
                  }
                  JOINT RightHandIndex1
                  {
                    OFFSET -3.253496 -2.33755 -0.127667
                    CHANNELS 3 Zrotation Yrotation Xrotation
                    JOINT RightHandIndex2
                    {
                      OFFSET -6.344434 0.0 0.0
                      CHANNELS 3 Zrotation Yrotation Xrotation
                      JOINT RightHandIndex3
                      {
                        OFFSET -3.654871 0.0 -8e-06
                        CHANNELS 3 Zrotation Yrotation Xrotation
                        JOINT RightHandIndex4
                        {
                          OFFSET -2.327586 -1e-06 0.0
                          CHANNELS 3 Zrotation Yrotation Xrotation
                          JOINT RightHandIndexEnd
                          {
                            OFFSET -2.770001 3e-06 8e-06
                            CHANNELS 3 Zrotation Yrotation Xrotation
                          }
                        }
                      }
                    }
                  }
                  JOINT RightHandMiddle1
                  {
                    OFFSET -3.168223 -0.944764 0.411762
                    CHANNELS 3 Zrotation Yrotation Xrotation
                    JOINT RightHandMiddle2
                    {
                      OFFSET -6.266691 -1e-06 -4e-06
                      CHANNELS 3 Zrotation Yrotation Xrotation
                      JOINT RightHandMiddle3
                      {
                        OFFSET -4.348901 0.0 0.0
                        CHANNELS 3 Zrotation Yrotation Xrotation
                        JOINT RightHandMiddle4
                        {
                          OFFSET -3.00024 2e-06 -4e-06
                          CHANNELS 3 Zrotation Yrotation Xrotation
                          JOINT RightHandMiddleEnd
                          {
                            OFFSET -2.321477 -4e-06 -4e-06
                            CHANNELS 3 Zrotation Yrotation Xrotation
                          }
                        }
                      }
                    }
                  }
                  JOINT RightHandRing1
                  {
                    OFFSET -2.885654 0.293261 -0.119232
                    CHANNELS 3 Zrotation Yrotation Xrotation
                    JOINT RightHandRing2
                    {
                      OFFSET -6.032835 -1e-06 -4e-06
                      CHANNELS 3 Zrotation Yrotation Xrotation
                      JOINT RightHandRing3
                      {
                        OFFSET -4.33881 0.0 -4e-06
                        CHANNELS 3 Zrotation Yrotation Xrotation
                        JOINT RightHandRing4
                        {
                          OFFSET -2.654903 -4e-06 -4e-06
                          CHANNELS 3 Zrotation Yrotation Xrotation
                          JOINT RightHandRingEnd
                          {
                            OFFSET -1.935122 0.0 4e-06
                            CHANNELS 3 Zrotation Yrotation Xrotation
                          }
                        }
                      }
                    }
                  }
                  JOINT RightHandPinky1
                  {
                    OFFSET -2.866241 1.503904 -0.60527
                    CHANNELS 3 Zrotation Yrotation Xrotation
                    JOINT RightHandPinky2
                    {
                      OFFSET -5.553177 -2e-06 0.0
                      CHANNELS 3 Zrotation Yrotation Xrotation
                      JOINT RightHandPinky3
                      {
                        OFFSET -3.062664 -1e-06 -4e-06
                        CHANNELS 3 Zrotation Yrotation Xrotation
                        JOINT RightHandPinky4
                        {
                          OFFSET -1.546529 2e-06 4e-06
                          CHANNELS 3 Zrotation Yrotation Xrotation
                          JOINT RightHandPinkyEnd
                          {
                            OFFSET -1.952341 0.0 -4e-06
                            CHANNELS 3 Zrotation Yrotation Xrotation
                          }
                        }
                      }
                    }
                  }
                }
              }
            }
          }
        }
      }
    }
    JOINT LeftLeg
    {
      OFFSET -8.443107 2.567604 10.043214
      CHANNELS 3 Zrotation Yrotation Xrotation
      JOINT LeftShin
      {
        OFFSET 43.229198 1e-06 -1e-06
        CHANNELS 3 Zrotation Yrotation Xrotation
        JOINT LeftFoot
        {
          OFFSET 42.298611 1e-06 1e-06
          CHANNELS 3 Zrotation Yrotation Xrotation
          JOINT LeftToeBase
          {
            OFFSET 14.165858 1e-06 0.0
            CHANNELS 3 Zrotation Yrotation Xrotation
            JOINT LeftToeEnd
            {
              OFFSET 6.7141 -0.234461 0.0
              CHANNELS 3 Zrotation Yrotation Xrotation
            }
          }
        }
      }
    }
    JOINT RightLeg
    {
      OFFSET -8.303923 2.592729 -10.047278
      CHANNELS 3 Zrotation Yrotation Xrotation
      JOINT RightShin
      {
        OFFSET -43.369682 0.0 1e-06
        CHANNELS 3 Zrotation Yrotation Xrotation
        JOINT RightFoot
        {
          OFFSET -42.260784 4e-06 2e-06
          CHANNELS 3 Zrotation Yrotation Xrotation
          JOINT RightToeBase
          {
            OFFSET -14.222245 -2e-06 -1e-06
            CHANNELS 3 Zrotation Yrotation Xrotation
            JOINT RightToeEnd
            {
              OFFSET -6.660062 0.232574 -2e-06
              CHANNELS 3 Zrotation Yrotation Xrotation
            }
          }
        }
      }
    }
  }
}
MOTION
Frames: 5
Frame Time: 0.03333333333333333
0.0 0.0 0.0 0.0 -0.0 0.0 -1.419942 100.33847 -0.868733 90.131958 1.994207 86.814354 -2.773334 -0.534789 0.080664 -11.957406 -0.434471 -0.008533 23.272333 1.080604 -1.416401 14.057302 1.324405 2.482779 -2.626244 -0.653171 1.129007 -42.73579 2.032708 -1.210491 5e-06 0.0 -0.0 0.031501 0.006572 -0.021554 0.15713 -0.131474 -0.012481 0.121403 0.146509 -0.021218 -116.744324 -74.523758 131.719788 8.626572 -59.72485 1.055595 79.366692 0.655389 0.652804 19.370882 16.440533 11.520846 17.636633 -26.322733 52.411182 -19.466658 -14.395594 29.410378 -1e-06 -8.774819 -4e-06 15.814112 -17.908556 6.381188 -0.609776 -1.795653 -3.889327 -4.807087 -11.046808 -2.93785 5e-06 -20.976015 4e-06 -5.019969 -25.033548 -4.031877 4e-06 1e-06 -1e-06 -10.634531 -5.686967 -3.565586 10.573271 -17.922949 -3.113898 3e-06 -13.821206 3e-06 -0.501778 -31.181498 -4.027008 -12.217133 -59.250404 7.787006 -13.982711 -7.150194 -2.875044 13.772727 -8.401493 -3.21824 0.347734 -34.211544 0.77166 -0.963027 -17.73337 2.621022 -0.0 1e-06 -1e-06 -17.346409 -20.095209 -4.201784 21.757551 -1.638379 3.866429 1e-06 -6.338824 2e-06 -1.697588 -22.591738 -6.194002 -0.0 -5e-06 -2e-06 47.270351 -78.86734 147.588394 12.211321 -51.098465 16.883879 75.95916 1.042945 0.336051 13.291272 15.738388 16.176857 22.182114 -20.375896 49.933319 -16.701811 -16.743526 28.476522 -2e-06 -12.6906 -2e-06 15.278035 -18.324417 3.288626 -0.105921 -1.513857 -4.275883 -5.03904 -5.612871 -2.953558 4e-06 -11.020524 -3e-06 -6.111295 -15.895334 -3.840471 -3e-06 1e-06 -0.0 -10.283369 -5.680288 -4.341839 11.028294 -11.302404 -2.372635 -1.384266 -14.238581 -6.32012 -0.625436 -26.924191 -3.8276 -4.62942 -49.746029 -3.515261 -13.708523 -7.363475 -3.72094 18.141146 -14.052739 -3.242675 7e-06 -18.78727 -1e-06 -0.429714 -8.456043 2.555504 2e-06 -1e-06 0.0 -15.92353 -20.094479 -5.473584 30.419205 -7.190823 1.735924 3e-06 -8.162927 0.0 -1.8619 -22.861467 -6.167942 -1e-06 -3e-06 -1e-06 -176.115524 -1.371983 -12.199877 6.625352 -0.033536 0.056594 -76.505135 -12.812329 -2.865391 -3.561928 1.59695 2.212516 -0.999998 1e-06 0.0 0.646156 -1.377593 -4.059065 10.742569 -0.006032 0.073763 -78.346466 -6.789062 -4.773156 -3.523821 0.712343 1.709507 -1.000003 0.0 -0.0 
0.0 0.0 0.0 0.0 -0.0 0.0 -1.468964 100.350128 -0.847748 90.156342 1.947501 86.934296 -2.777281 -0.485629 0.111013 -11.972191 -0.403431 0.05249 23.253349 1.122586 -1.443558 14.221395 0.891894 2.520954 -2.642742 -0.688186 0.967201 -42.717323 1.78374 -1.191119 6e-06 0.0 0.0 0.027297 0.018974 -0.008216 0.155302 -0.127805 -0.00328 0.117474 0.167355 -0.00278 -118.477722 -74.531082 133.548523 11.548834 -61.154755 1.075601 68.750977 0.965784 0.609182 18.751154 16.37575 10.577949 17.636635 -26.322735 52.411205 -19.466669 -14.3956 29.410398 -2e-06 -8.774821 -2e-06 15.864653 -17.919621 6.315839 -0.609776 -1.795654 -3.88933 -4.807088 -11.046812 -2.937851 6e-06 -20.976021 -1e-06 -5.01997 -25.033562 -4.031883 7e-06 -1e-06 0.0 -10.634537 -5.686971 -3.565589 10.573278 -17.922956 -3.113904 4e-06 -13.821213 2e-06 -0.501774 -31.181507 -4.027016 -12.304934 -59.367382 7.816182 -13.982715 -7.150198 -2.875044 13.772732 -8.401493 -3.218244 0.347737 -34.211559 0.771654 -0.963028 -17.733376 2.621022 -0.0 -1e-06 1e-06 -17.346422 -20.095221 -4.201783 21.757561 -1.638376 3.866429 -0.0 -6.338825 2e-06 -1.697588 -22.591749 -6.194009 0.0 -4e-06 -2e-06 44.987782 -78.754387 149.93219 15.0158 -51.744972 17.187365 67.92009 1.0952 0.275908 13.888477 15.625859 16.045292 22.182114 -20.375895 49.933327 -16.701817 -16.74353 28.476534 -1e-06 -12.690603 -2e-06 15.335299 -18.337137 3.200943 -0.105919 -1.513856 -4.27588 -5.03904 -5.612872 -2.953559 4e-06 -11.020525 -1e-06 -6.111298 -15.895332 -3.84047 -2e-06 -0.0 -1e-06 -10.283371 -5.680288 -4.341837 11.028296 -11.302404 -2.372635 -1.38427 -14.238581 -6.32012 -0.625436 -26.924187 -3.827604 -4.556851 -49.651142 -3.539473 -13.708524 -7.363478 -3.720942 18.14115 -14.052739 -3.242676 7e-06 -18.78727 -5e-06 -0.429709 -8.456043 2.555504 2e-06 -1e-06 -0.0 -15.923532 -20.094482 -5.473586 30.41921 -7.190824 1.735926 3e-06 -8.162927 -1e-06 -1.8619 -22.861467 -6.167944 1e-06 -2e-06 -1e-06 -176.071457 -1.379187 -11.945414 6.422828 -0.027591 0.027746 -76.370422 -12.767789 -2.958155 -3.546814 1.581351 2.21033 -1.0 1e-06 -0.0 0.712539 -1.344826 -3.862031 10.594495 0.005316 0.072374 -78.309875 -7.054028 -4.88256 -3.482231 0.712394 1.708449 -1.000003 0.0 -0.0 
0.0 0.0 0.0 0.0 -0.0 0.0 -1.515879 100.366066 -0.813836 90.191582 1.885865 87.034592 -2.802248 -0.426474 0.144316 -11.971434 -0.363949 0.133029 23.211226 1.18195 -1.44671 14.314649 0.38441 2.553001 -2.654094 -0.723792 0.806 -42.714695 1.513131 -1.121025 6e-06 -0.0 -0.0 0.028154 0.029837 0.004236 0.149604 -0.123271 0.004083 0.11148 0.184129 0.015716 -120.697655 -74.57827 135.77417 15.668941 -62.35923 -0.414356 57.041702 0.982995 0.447009 17.050476 15.72531 8.095772 17.636627 -26.322731 52.411198 -19.466658 -14.395597 29.410389 -2e-06 -8.774819 -0.0 15.78187 -18.000048 6.191005 -0.609777 -1.795655 -3.889328 -4.807089 -11.046809 -2.937851 5e-06 -20.976017 -0.0 -5.019965 -25.033556 -4.031882 7e-06 -1e-06 -1e-06 -10.634531 -5.686969 -3.565587 10.573277 -17.922947 -3.113901 3e-06 -13.821205 3e-06 -0.501781 -31.181498 -4.027012 -12.236197 -59.323074 7.65728 -13.982712 -7.150198 -2.875041 13.77273 -8.401489 -3.218242 0.347734 -34.211544 0.771655 -0.96303 -17.733368 2.621021 1e-06 -2e-06 2e-06 -17.346416 -20.095215 -4.201779 21.757555 -1.638374 3.866428 2e-06 -6.338821 1e-06 -1.697591 -22.591743 -6.194005 -0.0 -4e-06 -1e-06 42.562099 -78.592186 152.354935 18.262764 -52.492168 16.762537 59.356873 1.060266 0.163912 14.32377 15.639421 15.759317 22.182116 -20.375893 49.933315 -16.701807 -16.743525 28.476522 -4e-06 -12.6906 -1e-06 15.385064 -18.325104 3.076744 -0.10592 -1.513856 -4.275883 -5.039042 -5.612873 -2.953557 5e-06 -11.020523 -0.0 -6.111293 -15.895328 -3.84047 0.0 1e-06 -1e-06 -10.28337 -5.680288 -4.341838 11.028294 -11.302404 -2.372632 -1.384265 -14.238577 -6.320121 -0.625434 -26.924185 -3.827604 -4.445387 -49.599777 -3.584932 -13.70852 -7.363475 -3.720941 18.141144 -14.052736 -3.242674 6e-06 -18.787266 -4e-06 -0.429711 -8.45604 2.555503 2e-06 1e-06 1e-06 -15.923532 -20.094482 -5.473584 30.419205 -7.190823 1.735926 1e-06 -8.162922 -0.0 -1.861901 -22.861467 -6.167942 2e-06 -4e-06 -0.0 -176.002655 -1.358567 -11.700125 6.14202 -0.025734 -0.012477 -76.17836 -12.802818 -2.999077 -3.472708 1.568425 2.208297 -0.999999 1e-06 0.0 0.790346 -1.330803 -3.709778 10.402122 0.020739 0.05815 -78.259949 -7.260906 -4.907394 -3.366271 0.69253 1.70323 -1.000002 0.0 -0.0 
0.0 0.0 0.0 0.0 -0.0 0.0 -1.560401 100.380074 -0.768307 90.251968 1.811012 87.085533 -2.85467 -0.375209 0.180514 -11.935334 -0.332399 0.212719 23.127146 1.238243 -1.394412 14.310287 -0.148775 2.559344 -2.630109 -0.736039 0.687236 -42.715965 1.277916 -1.010232 6e-06 -0.0 0.0 0.043733 0.033572 0.007406 0.1626 -0.11867 0.006382 0.125942 0.186509 0.020695 -123.442841 -74.713249 138.362274 20.598642 -63.269955 -3.139366 44.325283 0.659015 0.22235 14.405371 13.589339 3.950278 17.636627 -26.322737 52.411201 -19.466665 -14.395597 29.410395 -0.0 -8.774824 -1e-06 15.701195 -18.106699 5.973558 -0.609778 -1.795654 -3.889329 -4.807089 -11.046811 -2.937852 2e-06 -20.976021 -0.0 -5.019972 -25.03356 -4.031884 7e-06 2e-06 0.0 -10.634538 -5.686971 -3.565587 10.573275 -17.922953 -3.1139 2e-06 -13.821212 3e-06 -0.501779 -31.181501 -4.027019 -11.943563 -59.097435 7.268189 -13.982718 -7.1502 -2.875043 13.772735 -8.401491 -3.218241 0.347731 -34.211555 0.771658 -0.96303 -17.73337 2.621019 0.0 -0.0 0.0 -17.346424 -20.095221 -4.201783 21.757561 -1.638375 3.86643 -3e-06 -6.338825 2e-06 -1.697589 -22.591747 -6.194009 1e-06 -5e-06 -1e-06 40.014336 -78.410576 154.754776 21.785353 -53.331482 16.067867 50.399105 1.012136 0.090924 14.204039 15.648268 15.214805 22.182117 -20.375898 49.933327 -16.701815 -16.743532 28.47653 -1e-06 -12.690604 -2e-06 15.43364 -18.29941 2.981965 -0.105919 -1.513856 -4.275882 -5.039045 -5.612873 -2.953557 3e-06 -11.020524 0.0 -6.111301 -15.89533 -3.84047 0.0 0.0 -2e-06 -10.283371 -5.68029 -4.341841 11.028295 -11.302406 -2.372631 -1.38427 -14.238583 -6.320123 -0.625442 -26.924192 -3.827603 -4.367918 -49.629829 -3.571477 -13.708527 -7.363479 -3.720938 18.141151 -14.05274 -3.242674 6e-06 -18.787275 -4e-06 -0.42971 -8.456045 2.555504 3e-06 -0.0 1e-06 -15.923536 -20.094484 -5.473588 30.419218 -7.190826 1.735927 2e-06 -8.162928 -0.0 -1.861901 -22.861475 -6.167944 -1e-06 -2e-06 -1e-06 -175.926102 -1.299137 -11.545571 5.853127 -0.029133 -0.049272 -75.972626 -12.904088 -3.04633 -3.359128 1.56802 2.208056 -0.999998 1e-06 0.0 0.785398 -1.356331 -3.622416 10.33822 0.031906 0.025985 -78.270523 -7.323107 -4.818981 -3.191372 0.655418 1.690987 -1.000001 0.0 0.0 
0.0 0.0 0.0 0.0 -0.0 0.0 -1.608661 100.385895 -0.719699 90.328926 1.72291 87.143112 -2.926249 -0.340138 0.213065 -11.908467 -0.315743 0.258453 23.059824 1.270507 -1.341418 14.215644 -0.644981 2.546499 -2.577051 -0.721122 0.632229 -42.71386 1.117047 -0.886245 7e-06 -0.0 -0.0 0.063407 0.035372 0.012336 0.195298 -0.109183 0.016263 0.159283 0.180164 0.020895 -126.72657 -74.901115 141.346176 25.069469 -63.702545 -5.48066 31.887432 0.184616 0.056263 11.458966 9.861763 0.160293 17.636633 -26.322748 52.411213 -19.466665 -14.3956 29.410395 -0.0 -8.774822 -2e-06 15.708107 -18.088449 5.832663 -0.609778 -1.795654 -3.889327 -4.807088 -11.046813 -2.937851 2e-06 -20.976021 1e-06 -5.019973 -25.033564 -4.031882 7e-06 1e-06 1e-06 -10.634535 -5.68697 -3.565588 10.573275 -17.922955 -3.1139 1e-06 -13.821211 -0.0 -0.501779 -31.181505 -4.027013 -11.644484 -59.155163 7.003054 -13.982716 -7.150199 -2.875042 13.772731 -8.401495 -3.218242 0.347731 -34.211559 0.771658 -0.96303 -17.733374 2.621021 1e-06 -1e-06 -2e-06 -17.346422 -20.095221 -4.20178 21.757559 -1.638375 3.866427 2e-06 -6.338825 1e-06 -1.697589 -22.591747 -6.194006 -0.0 -4e-06 -2e-06 37.564892 -78.210747 157.036972 25.335003 -54.162338 15.374419 42.020393 0.966158 0.140955 13.164663 15.325175 14.210986 22.182127 -20.375902 49.933323 -16.701807 -16.74353 28.47653 -4e-06 -12.690601 -1e-06 15.551388 -18.243814 2.902152 -0.105922 -1.513857 -4.275884 -5.039041 -5.612872 -2.953556 5e-06 -11.020521 0.0 -6.111295 -15.89533 -3.840472 2e-06 0.0 1e-06 -10.283371 -5.680289 -4.341842 11.028296 -11.302404 -2.372631 -1.384272 -14.238583 -6.320121 -0.625439 -26.924187 -3.827599 -4.323843 -49.758316 -3.503127 -13.708524 -7.363476 -3.720943 18.141151 -14.05274 -3.24267 4e-06 -18.787271 1e-06 -0.429711 -8.456045 2.555506 2e-06 -2e-06 -2e-06 -15.923536 -20.094482 -5.473586 30.419214 -7.190827 1.735927 3e-06 -8.162927 -0.0 -1.861904 -22.861469 -6.167939 -1e-06 -3e-06 -2e-06 -175.912613 -1.228266 -11.460032 5.700891 -0.031358 -0.074382 -75.845398 -13.026187 -3.02718 -3.278026 1.55697 2.199322 -1.0 1e-06 0.0 0.664102 -1.41743 -3.634367 10.485917 0.038004 -0.022012 -78.383194 -7.210241 -4.666441 -3.020261 0.624368 1.680786 -1.000001 -0.0 0.0 
